<svg width="141" height="141" viewBox="0 0 141 141" fill="none" xmlns="http://www.w3.org/2000/svg">
<circle cx="70.5" cy="70.5" r="68.5" fill="#DABEEE" stroke="black" stroke-width="4"/>
<circle cx="70.5" cy="70.5" r="64.5" stroke="white" stroke-width="4"/>
<path d="M56.5889 95.12C56.2222 95.12 55.8656 95.09 55.5189 95.03C55.1789 94.97 54.8756 94.8667 54.6089 94.72C54.3422 94.5667 54.1289 94.3633 53.9689 94.11C53.8156 93.85 53.7389 93.52 53.7389 93.12C53.7389 93.0867 53.7389 93.06 53.7389 93.04C53.7389 93.0133 53.7422 92.9767 53.7489 92.93H54.2989C54.2922 92.9633 54.2856 93.0067 54.2789 93.06C54.2789 93.1067 54.2789 93.15 54.2789 93.19C54.2789 93.5167 54.3789 93.79 54.5789 94.01C54.7789 94.2233 55.0456 94.3833 55.3789 94.49C55.7189 94.59 56.0889 94.64 56.4889 94.64C56.5756 94.64 56.7089 94.6333 56.8889 94.62C57.0689 94.6067 57.2622 94.5767 57.4689 94.53C57.6822 94.4767 57.8822 94.4 58.0689 94.3C58.2622 94.2 58.4189 94.0667 58.5389 93.9C58.6656 93.7267 58.7289 93.5067 58.7289 93.24C58.7289 92.9733 58.6589 92.7533 58.5189 92.58C58.3856 92.4 58.2056 92.2533 57.9789 92.14C57.7522 92.0267 57.4956 91.93 57.2089 91.85C56.9222 91.7633 56.6256 91.6833 56.3189 91.61C56.0122 91.5367 55.7156 91.4567 55.4289 91.37C55.1422 91.2767 54.8856 91.1633 54.6589 91.03C54.4322 90.8967 54.2489 90.7267 54.1089 90.52C53.9756 90.3133 53.9089 90.06 53.9089 89.76C53.9089 89.52 53.9556 89.2933 54.0489 89.08C54.1422 88.8667 54.2922 88.6833 54.4989 88.53C54.7056 88.37 54.9789 88.2467 55.3189 88.16C55.6656 88.0667 56.0889 88.02 56.5889 88.02C56.9356 88.02 57.2556 88.0567 57.5489 88.13C57.8489 88.2033 58.1122 88.3167 58.3389 88.47C58.5656 88.6167 58.7422 88.8067 58.8689 89.04C58.9956 89.2733 59.0589 89.5533 59.0589 89.88V90H58.5189V89.79C58.5189 89.5233 58.4356 89.2967 58.2689 89.11C58.1022 88.9167 57.8789 88.7667 57.5989 88.66C57.3189 88.5533 57.0056 88.5 56.6589 88.5C56.1389 88.5 55.7156 88.5533 55.3889 88.66C55.0689 88.7667 54.8322 88.91 54.6789 89.09C54.5322 89.2633 54.4589 89.4567 54.4589 89.67C54.4589 89.9233 54.5256 90.1333 54.6589 90.3C54.7989 90.4667 54.9822 90.6033 55.2089 90.71C55.4422 90.8167 55.7022 90.91 55.9889 90.99C56.2756 91.07 56.5689 91.1467 56.8689 91.22C57.1756 91.2933 57.4722 91.3767 57.7589 91.47C58.0456 91.5633 58.3022 91.68 58.5289 91.82C58.7622 91.96 58.9456 92.1367 59.0789 92.35C59.2189 92.5633 59.2889 92.8267 59.2889 93.14C59.2889 93.5933 59.1722 93.9667 58.9389 94.26C58.7122 94.5533 58.3956 94.77 57.9889 94.91C57.5889 95.05 57.1222 95.12 56.5889 95.12ZM60.896 95V88.14H61.436V91.26H65.796V88.14H66.336V95H65.796V91.74H61.436V95H60.896ZM71.2884 95.12C70.5817 95.12 69.975 94.9867 69.4684 94.72C68.9684 94.4533 68.5817 94.0567 68.3084 93.53C68.0417 93.0033 67.9084 92.35 67.9084 91.57C67.9084 90.7833 68.0417 90.13 68.3084 89.61C68.5817 89.0833 68.9684 88.6867 69.4684 88.42C69.975 88.1533 70.5817 88.02 71.2884 88.02C72.0017 88.02 72.6084 88.1533 73.1084 88.42C73.615 88.6867 74.0017 89.0833 74.2684 89.61C74.5417 90.13 74.6784 90.7833 74.6784 91.57C74.6784 92.35 74.5417 93.0033 74.2684 93.53C74.0017 94.0567 73.615 94.4533 73.1084 94.72C72.6084 94.9867 72.0017 95.12 71.2884 95.12ZM71.2884 94.64C71.7017 94.64 72.0817 94.5867 72.4284 94.48C72.775 94.3733 73.0717 94.2033 73.3184 93.97C73.5717 93.73 73.765 93.4233 73.8984 93.05C74.0384 92.67 74.1084 92.21 74.1084 91.67V91.47C74.1084 90.93 74.0384 90.4733 73.8984 90.1C73.765 89.72 73.5717 89.4133 73.3184 89.18C73.0717 88.94 72.775 88.7667 72.4284 88.66C72.0817 88.5533 71.7017 88.5 71.2884 88.5C70.875 88.5 70.495 88.5533 70.1484 88.66C69.8084 88.7667 69.5117 88.94 69.2584 89.18C69.0117 89.4133 68.8184 89.72 68.6784 90.1C68.545 90.4733 68.4784 90.93 68.4784 91.47V91.67C68.4784 92.21 68.545 92.67 68.6784 93.05C68.8184 93.4233 69.0117 93.73 69.2584 93.97C69.5117 94.2033 69.8084 94.3733 70.1484 94.48C70.495 94.5867 70.875 94.64 71.2884 94.64ZM76.2476 95V88.14H81.4476V88.62H76.7876V91.24H81.0076V91.72H76.7876V94.52H81.5076V95H76.2476ZM85.544 95.12C85.1773 95.12 84.8207 95.09 84.474 95.03C84.134 94.97 83.8307 94.8667 83.564 94.72C83.2973 94.5667 83.084 94.3633 82.924 94.11C82.7707 93.85 82.694 93.52 82.694 93.12C82.694 93.0867 82.694 93.06 82.694 93.04C82.694 93.0133 82.6973 92.9767 82.704 92.93H83.254C83.2473 92.9633 83.2407 93.0067 83.234 93.06C83.234 93.1067 83.234 93.15 83.234 93.19C83.234 93.5167 83.334 93.79 83.534 94.01C83.734 94.2233 84.0007 94.3833 84.334 94.49C84.674 94.59 85.044 94.64 85.444 94.64C85.5307 94.64 85.664 94.6333 85.844 94.62C86.024 94.6067 86.2173 94.5767 86.424 94.53C86.6373 94.4767 86.8373 94.4 87.024 94.3C87.2173 94.2 87.374 94.0667 87.494 93.9C87.6207 93.7267 87.684 93.5067 87.684 93.24C87.684 92.9733 87.614 92.7533 87.474 92.58C87.3407 92.4 87.1607 92.2533 86.934 92.14C86.7073 92.0267 86.4507 91.93 86.164 91.85C85.8773 91.7633 85.5807 91.6833 85.274 91.61C84.9673 91.5367 84.6707 91.4567 84.384 91.37C84.0973 91.2767 83.8407 91.1633 83.614 91.03C83.3873 90.8967 83.204 90.7267 83.064 90.52C82.9307 90.3133 82.864 90.06 82.864 89.76C82.864 89.52 82.9107 89.2933 83.004 89.08C83.0973 88.8667 83.2473 88.6833 83.454 88.53C83.6607 88.37 83.934 88.2467 84.274 88.16C84.6207 88.0667 85.044 88.02 85.544 88.02C85.8907 88.02 86.2107 88.0567 86.504 88.13C86.804 88.2033 87.0673 88.3167 87.294 88.47C87.5207 88.6167 87.6973 88.8067 87.824 89.04C87.9507 89.2733 88.014 89.5533 88.014 89.88V90H87.474V89.79C87.474 89.5233 87.3907 89.2967 87.224 89.11C87.0573 88.9167 86.834 88.7667 86.554 88.66C86.274 88.5533 85.9607 88.5 85.614 88.5C85.094 88.5 84.6707 88.5533 84.344 88.66C84.024 88.7667 83.7873 88.91 83.634 89.09C83.4873 89.2633 83.414 89.4567 83.414 89.67C83.414 89.9233 83.4807 90.1333 83.614 90.3C83.754 90.4667 83.9373 90.6033 84.164 90.71C84.3973 90.8167 84.6573 90.91 84.944 90.99C85.2307 91.07 85.524 91.1467 85.824 91.22C86.1307 91.2933 86.4273 91.3767 86.714 91.47C87.0007 91.5633 87.2573 91.68 87.484 91.82C87.7173 91.96 87.9007 92.1367 88.034 92.35C88.174 92.5633 88.244 92.8267 88.244 93.14C88.244 93.5933 88.1273 93.9667 87.894 94.26C87.6673 94.5533 87.3507 94.77 86.944 94.91C86.544 95.05 86.0773 95.12 85.544 95.12Z" fill="black"/>
<path d="M30.5545 75.28C30.2185 75.568 29.6905 75.82 28.9705 76.036C28.2745 76.252 27.5065 76.36 26.6665 76.36C25.6825 76.36 24.8185 76.216 24.0745 75.928C23.3545 75.616 22.8625 75.196 22.5985 74.668C22.2625 73.996 21.8665 73.108 21.4105 72.004C20.9545 70.9 20.4625 69.652 19.9345 68.26C19.4065 66.868 18.8785 65.428 18.3505 63.94C17.8225 62.452 17.3305 60.976 16.8745 59.512C16.4425 58.024 16.0705 56.656 15.7585 55.408C16.0945 55.072 16.5745 54.772 17.1985 54.508C17.8465 54.22 18.5305 54.076 19.2505 54.076C20.1385 54.076 20.8585 54.268 21.4105 54.652C21.9865 55.036 22.4065 55.72 22.6705 56.704C23.3185 59.056 23.9665 61.312 24.6145 63.472C25.2865 65.608 25.9825 67.84 26.7025 70.168H26.9185C27.3505 68.68 27.7825 67.084 28.2145 65.38C28.6705 63.676 29.1265 61.936 29.5825 60.16C30.0385 58.36 30.4705 56.584 30.8785 54.832C31.3105 54.616 31.7785 54.436 32.2825 54.292C32.7865 54.148 33.3385 54.076 33.9385 54.076C34.8265 54.076 35.5825 54.28 36.2065 54.688C36.8305 55.072 37.1425 55.72 37.1425 56.632C37.1425 57.136 37.0225 57.892 36.7825 58.9C36.5425 59.908 36.2185 61.06 35.8105 62.356C35.4025 63.628 34.9465 64.948 34.4425 66.316C33.9625 67.66 33.4705 68.944 32.9665 70.168C32.4865 71.392 32.0305 72.46 31.5985 73.372C31.1665 74.284 30.8185 74.92 30.5545 75.28ZM40.3029 60.088H46.4229V75.784C46.1589 75.856 45.7749 75.928 45.2709 76C44.7669 76.072 44.2269 76.108 43.6509 76.108C42.6189 76.108 41.8029 75.808 41.2029 75.208C40.6029 74.608 40.3029 73.792 40.3029 72.76V60.088ZM46.4229 70.204H40.3029V57.532C40.3029 56.5 40.6029 55.684 41.2029 55.084C41.8029 54.484 42.6189 54.184 43.6509 54.184C44.2269 54.184 44.7669 54.22 45.2709 54.292C45.7749 54.364 46.1589 54.436 46.4229 54.508V70.204ZM43.6509 67.36V62.464H54.5229C54.6909 62.728 54.8349 63.064 54.9549 63.472C55.0989 63.88 55.1709 64.336 55.1709 64.84C55.1709 65.728 54.9789 66.376 54.5949 66.784C54.2109 67.168 53.6829 67.36 53.0109 67.36H43.6509ZM43.6509 76.108V71.14H55.6749C55.8429 71.404 55.9869 71.752 56.1069 72.184C56.2509 72.616 56.3229 73.084 56.3229 73.588C56.3229 74.476 56.1309 75.124 55.7469 75.532C55.3629 75.916 54.8349 76.108 54.1629 76.108H43.6509ZM43.6509 59.116V54.184H55.5309C55.6989 54.448 55.8429 54.784 55.9629 55.192C56.1069 55.6 56.1789 56.056 56.1789 56.56C56.1789 57.448 55.9869 58.096 55.6029 58.504C55.2189 58.912 54.6909 59.116 54.0189 59.116H43.6509ZM60.0255 61.6H65.8215C65.9175 62.704 65.9775 63.76 66.0015 64.768C66.0495 65.776 66.0735 66.736 66.0735 67.648C66.0735 68.536 66.0735 69.412 66.0735 70.276V76C65.8335 76.048 65.4375 76.108 64.8855 76.18C64.3575 76.252 63.8175 76.288 63.2655 76.288C62.0655 76.288 61.2255 76.084 60.7455 75.676C60.2655 75.244 60.0255 74.488 60.0255 73.408V61.6ZM79.7895 68.44H73.9935C73.8495 66.76 73.7655 65.212 73.7415 63.796C73.7415 62.38 73.7415 61.036 73.7415 59.764V54.076C74.0055 54.028 74.4015 53.968 74.9295 53.896C75.4575 53.824 75.9975 53.788 76.5495 53.788C77.7495 53.788 78.5895 54.004 79.0695 54.436C79.5495 54.844 79.7895 55.588 79.7895 56.668V68.44ZM79.7895 66.496V61.96V75.244C79.4535 75.556 78.9615 75.808 78.3135 76C77.6895 76.192 76.9335 76.288 76.0455 76.288C75.1575 76.288 74.3175 76.156 73.5255 75.892C72.7335 75.628 72.0855 74.992 71.5815 73.984L68.0175 66.712C67.7775 66.208 67.5495 65.74 67.3335 65.308C67.1415 64.852 66.9495 64.384 66.7575 63.904C66.5655 63.424 66.3495 62.896 66.1095 62.32L60.0255 63.652V55.3C60.3615 54.82 60.8775 54.46 61.5735 54.22C62.2695 53.98 63.0135 53.86 63.8055 53.86C64.6935 53.86 65.5335 54.004 66.3255 54.292C67.1415 54.556 67.7895 55.18 68.2695 56.164L71.8695 63.436C72.1095 63.916 72.3255 64.384 72.5175 64.84C72.7335 65.296 72.9375 65.764 73.1295 66.244C73.3455 66.724 73.5615 67.252 73.7775 67.828L79.7895 66.496ZM94.0711 76.648C92.0551 76.648 90.3151 76.288 88.8511 75.568C87.4111 74.848 86.2951 73.84 85.5031 72.544C84.7351 71.248 84.3511 69.736 84.3511 68.008V65.812H90.6511V67.9C90.6511 69.028 90.9631 69.928 91.5871 70.6C92.2351 71.248 93.0631 71.572 94.0711 71.572C95.0791 71.572 95.8951 71.248 96.5191 70.6C97.1671 69.928 97.4911 69.028 97.4911 67.9V65.812H103.791V68.008C103.791 69.736 103.395 71.248 102.603 72.544C101.835 73.84 100.719 74.848 99.2551 75.568C97.8151 76.288 96.0871 76.648 94.0711 76.648ZM90.6511 66.784H84.3511V54.112C84.6391 54.064 85.0591 54.004 85.6111 53.932C86.1871 53.836 86.7391 53.788 87.2671 53.788C88.4671 53.788 89.3311 53.992 89.8591 54.4C90.3871 54.808 90.6511 55.6 90.6511 56.776V66.784ZM103.791 66.856H97.4911V54.112C97.7791 54.064 98.1991 54.004 98.7511 53.932C99.3271 53.836 99.8791 53.788 100.407 53.788C101.607 53.788 102.471 53.992 102.999 54.4C103.527 54.808 103.791 55.6 103.791 56.776V66.856ZM115.061 71.536C116.237 71.536 117.065 71.344 117.545 70.96C118.025 70.576 118.265 70.144 118.265 69.664C118.265 69.184 118.073 68.812 117.689 68.548C117.305 68.26 116.765 67.996 116.069 67.756L114.557 67.252C113.165 66.772 111.929 66.268 110.849 65.74C109.793 65.188 108.965 64.48 108.365 63.616C107.765 62.752 107.465 61.624 107.465 60.232C107.465 58.192 108.245 56.56 109.805 55.336C111.389 54.112 113.597 53.5 116.429 53.5C117.821 53.5 119.057 53.632 120.137 53.896C121.217 54.16 122.069 54.568 122.693 55.12C123.317 55.648 123.629 56.332 123.629 57.172C123.629 57.772 123.485 58.3 123.197 58.756C122.909 59.212 122.561 59.596 122.153 59.908C121.625 59.572 120.917 59.284 120.029 59.044C119.141 58.78 118.169 58.648 117.113 58.648C116.033 58.648 115.241 58.804 114.737 59.116C114.233 59.404 113.981 59.776 113.981 60.232C113.981 60.592 114.137 60.892 114.449 61.132C114.785 61.348 115.253 61.552 115.853 61.744L117.761 62.356C120.041 63.076 121.781 64.012 122.981 65.164C124.181 66.292 124.781 67.816 124.781 69.736C124.781 71.776 123.965 73.444 122.333 74.74C120.725 76.012 118.373 76.648 115.277 76.648C113.813 76.648 112.493 76.492 111.317 76.18C110.141 75.868 109.205 75.4 108.509 74.776C107.813 74.152 107.465 73.396 107.465 72.508C107.465 71.812 107.669 71.224 108.077 70.744C108.485 70.24 108.929 69.856 109.409 69.592C110.081 70.12 110.897 70.576 111.857 70.96C112.841 71.344 113.909 71.536 115.061 71.536Z" fill="black"/>
</svg>
