<svg width="141" height="49" viewBox="0 0 141 49" fill="none" xmlns="http://www.w3.org/2000/svg">
<path d="M56.5889 44.12C56.2222 44.12 55.8656 44.09 55.5189 44.03C55.1789 43.97 54.8756 43.8667 54.6089 43.72C54.3422 43.5667 54.1289 43.3633 53.9689 43.11C53.8156 42.85 53.7389 42.52 53.7389 42.12C53.7389 42.0867 53.7389 42.06 53.7389 42.04C53.7389 42.0133 53.7422 41.9767 53.7489 41.93H54.2989C54.2922 41.9633 54.2856 42.0067 54.2789 42.06C54.2789 42.1067 54.2789 42.15 54.2789 42.19C54.2789 42.5167 54.3789 42.79 54.5789 43.01C54.7789 43.2233 55.0456 43.3833 55.3789 43.49C55.7189 43.59 56.0889 43.64 56.4889 43.64C56.5756 43.64 56.7089 43.6333 56.8889 43.62C57.0689 43.6067 57.2622 43.5767 57.4689 43.53C57.6822 43.4767 57.8822 43.4 58.0689 43.3C58.2622 43.2 58.4189 43.0667 58.5389 42.9C58.6656 42.7267 58.7289 42.5067 58.7289 42.24C58.7289 41.9733 58.6589 41.7533 58.5189 41.58C58.3856 41.4 58.2056 41.2533 57.9789 41.14C57.7522 41.0267 57.4956 40.93 57.2089 40.85C56.9222 40.7633 56.6256 40.6833 56.3189 40.61C56.0122 40.5367 55.7156 40.4567 55.4289 40.37C55.1422 40.2767 54.8856 40.1633 54.6589 40.03C54.4322 39.8967 54.2489 39.7267 54.1089 39.52C53.9756 39.3133 53.9089 39.06 53.9089 38.76C53.9089 38.52 53.9556 38.2933 54.0489 38.08C54.1422 37.8667 54.2922 37.6833 54.4989 37.53C54.7056 37.37 54.9789 37.2467 55.3189 37.16C55.6656 37.0667 56.0889 37.02 56.5889 37.02C56.9356 37.02 57.2556 37.0567 57.5489 37.13C57.8489 37.2033 58.1122 37.3167 58.3389 37.47C58.5656 37.6167 58.7422 37.8067 58.8689 38.04C58.9956 38.2733 59.0589 38.5533 59.0589 38.88V39H58.5189V38.79C58.5189 38.5233 58.4356 38.2967 58.2689 38.11C58.1022 37.9167 57.8789 37.7667 57.5989 37.66C57.3189 37.5533 57.0056 37.5 56.6589 37.5C56.1389 37.5 55.7156 37.5533 55.3889 37.66C55.0689 37.7667 54.8322 37.91 54.6789 38.09C54.5322 38.2633 54.4589 38.4567 54.4589 38.67C54.4589 38.9233 54.5256 39.1333 54.6589 39.3C54.7989 39.4667 54.9822 39.6033 55.2089 39.71C55.4422 39.8167 55.7022 39.91 55.9889 39.99C56.2756 40.07 56.5689 40.1467 56.8689 40.22C57.1756 40.2933 57.4722 40.3767 57.7589 40.47C58.0456 40.5633 58.3022 40.68 58.5289 40.82C58.7622 40.96 58.9456 41.1367 59.0789 41.35C59.2189 41.5633 59.2889 41.8267 59.2889 42.14C59.2889 42.5933 59.1722 42.9667 58.9389 43.26C58.7122 43.5533 58.3956 43.77 57.9889 43.91C57.5889 44.05 57.1222 44.12 56.5889 44.12ZM60.896 44V37.14H61.436V40.26H65.796V37.14H66.336V44H65.796V40.74H61.436V44H60.896ZM71.2884 44.12C70.5817 44.12 69.975 43.9867 69.4684 43.72C68.9684 43.4533 68.5817 43.0567 68.3084 42.53C68.0417 42.0033 67.9084 41.35 67.9084 40.57C67.9084 39.7833 68.0417 39.13 68.3084 38.61C68.5817 38.0833 68.9684 37.6867 69.4684 37.42C69.975 37.1533 70.5817 37.02 71.2884 37.02C72.0017 37.02 72.6084 37.1533 73.1084 37.42C73.615 37.6867 74.0017 38.0833 74.2684 38.61C74.5417 39.13 74.6784 39.7833 74.6784 40.57C74.6784 41.35 74.5417 42.0033 74.2684 42.53C74.0017 43.0567 73.615 43.4533 73.1084 43.72C72.6084 43.9867 72.0017 44.12 71.2884 44.12ZM71.2884 43.64C71.7017 43.64 72.0817 43.5867 72.4284 43.48C72.775 43.3733 73.0717 43.2033 73.3184 42.97C73.5717 42.73 73.765 42.4233 73.8984 42.05C74.0384 41.67 74.1084 41.21 74.1084 40.67V40.47C74.1084 39.93 74.0384 39.4733 73.8984 39.1C73.765 38.72 73.5717 38.4133 73.3184 38.18C73.0717 37.94 72.775 37.7667 72.4284 37.66C72.0817 37.5533 71.7017 37.5 71.2884 37.5C70.875 37.5 70.495 37.5533 70.1484 37.66C69.8084 37.7667 69.5117 37.94 69.2584 38.18C69.0117 38.4133 68.8184 38.72 68.6784 39.1C68.545 39.4733 68.4784 39.93 68.4784 40.47V40.67C68.4784 41.21 68.545 41.67 68.6784 42.05C68.8184 42.4233 69.0117 42.73 69.2584 42.97C69.5117 43.2033 69.8084 43.3733 70.1484 43.48C70.495 43.5867 70.875 43.64 71.2884 43.64ZM76.2476 44V37.14H81.4476V37.62H76.7876V40.24H81.0076V40.72H76.7876V43.52H81.5076V44H76.2476ZM85.544 44.12C85.1773 44.12 84.8207 44.09 84.474 44.03C84.134 43.97 83.8307 43.8667 83.564 43.72C83.2973 43.5667 83.084 43.3633 82.924 43.11C82.7707 42.85 82.694 42.52 82.694 42.12C82.694 42.0867 82.694 42.06 82.694 42.04C82.694 42.0133 82.6973 41.9767 82.704 41.93H83.254C83.2473 41.9633 83.2407 42.0067 83.234 42.06C83.234 42.1067 83.234 42.15 83.234 42.19C83.234 42.5167 83.334 42.79 83.534 43.01C83.734 43.2233 84.0007 43.3833 84.334 43.49C84.674 43.59 85.044 43.64 85.444 43.64C85.5307 43.64 85.664 43.6333 85.844 43.62C86.024 43.6067 86.2173 43.5767 86.424 43.53C86.6373 43.4767 86.8373 43.4 87.024 43.3C87.2173 43.2 87.374 43.0667 87.494 42.9C87.6207 42.7267 87.684 42.5067 87.684 42.24C87.684 41.9733 87.614 41.7533 87.474 41.58C87.3407 41.4 87.1607 41.2533 86.934 41.14C86.7073 41.0267 86.4507 40.93 86.164 40.85C85.8773 40.7633 85.5807 40.6833 85.274 40.61C84.9673 40.5367 84.6707 40.4567 84.384 40.37C84.0973 40.2767 83.8407 40.1633 83.614 40.03C83.3873 39.8967 83.204 39.7267 83.064 39.52C82.9307 39.3133 82.864 39.06 82.864 38.76C82.864 38.52 82.9107 38.2933 83.004 38.08C83.0973 37.8667 83.2473 37.6833 83.454 37.53C83.6607 37.37 83.934 37.2467 84.274 37.16C84.6207 37.0667 85.044 37.02 85.544 37.02C85.8907 37.02 86.2107 37.0567 86.504 37.13C86.804 37.2033 87.0673 37.3167 87.294 37.47C87.5207 37.6167 87.6973 37.8067 87.824 38.04C87.9507 38.2733 88.014 38.5533 88.014 38.88V39H87.474V38.79C87.474 38.5233 87.3907 38.2967 87.224 38.11C87.0573 37.9167 86.834 37.7667 86.554 37.66C86.274 37.5533 85.9607 37.5 85.614 37.5C85.094 37.5 84.6707 37.5533 84.344 37.66C84.024 37.7667 83.7873 37.91 83.634 38.09C83.4873 38.2633 83.414 38.4567 83.414 38.67C83.414 38.9233 83.4807 39.1333 83.614 39.3C83.754 39.4667 83.9373 39.6033 84.164 39.71C84.3973 39.8167 84.6573 39.91 84.944 39.99C85.2307 40.07 85.524 40.1467 85.824 40.22C86.1307 40.2933 86.4273 40.3767 86.714 40.47C87.0007 40.5633 87.2573 40.68 87.484 40.82C87.7173 40.96 87.9007 41.1367 88.034 41.35C88.174 41.5633 88.244 41.8267 88.244 42.14C88.244 42.5933 88.1273 42.9667 87.894 43.26C87.6673 43.5533 87.3507 43.77 86.944 43.91C86.544 44.05 86.0773 44.12 85.544 44.12Z" fill="black"/>
<path d="M30.5545 24.28C30.2185 24.568 29.6905 24.82 28.9705 25.036C28.2745 25.252 27.5065 25.36 26.6665 25.36C25.6825 25.36 24.8185 25.216 24.0745 24.928C23.3545 24.616 22.8625 24.196 22.5985 23.668C22.2625 22.996 21.8665 22.108 21.4105 21.004C20.9545 19.9 20.4625 18.652 19.9345 17.26C19.4065 15.868 18.8785 14.428 18.3505 12.94C17.8225 11.452 17.3305 9.976 16.8745 8.512C16.4425 7.024 16.0705 5.656 15.7585 4.408C16.0945 4.072 16.5745 3.772 17.1985 3.508C17.8465 3.22 18.5305 3.076 19.2505 3.076C20.1385 3.076 20.8585 3.268 21.4105 3.652C21.9865 4.036 22.4065 4.72 22.6705 5.704C23.3185 8.056 23.9665 10.312 24.6145 12.472C25.2865 14.608 25.9825 16.84 26.7025 19.168H26.9185C27.3505 17.68 27.7825 16.084 28.2145 14.38C28.6705 12.676 29.1265 10.936 29.5825 9.16C30.0385 7.36 30.4705 5.584 30.8785 3.832C31.3105 3.616 31.7785 3.436 32.2825 3.292C32.7865 3.148 33.3385 3.076 33.9385 3.076C34.8265 3.076 35.5825 3.28 36.2065 3.688C36.8305 4.072 37.1425 4.72 37.1425 5.632C37.1425 6.136 37.0225 6.892 36.7825 7.9C36.5425 8.908 36.2185 10.06 35.8105 11.356C35.4025 12.628 34.9465 13.948 34.4425 15.316C33.9625 16.66 33.4705 17.944 32.9665 19.168C32.4865 20.392 32.0305 21.46 31.5985 22.372C31.1665 23.284 30.8185 23.92 30.5545 24.28ZM40.3029 9.088H46.4229V24.784C46.1589 24.856 45.7749 24.928 45.2709 25C44.7669 25.072 44.2269 25.108 43.6509 25.108C42.6189 25.108 41.8029 24.808 41.2029 24.208C40.6029 23.608 40.3029 22.792 40.3029 21.76V9.088ZM46.4229 19.204H40.3029V6.532C40.3029 5.5 40.6029 4.684 41.2029 4.084C41.8029 3.484 42.6189 3.184 43.6509 3.184C44.2269 3.184 44.7669 3.22 45.2709 3.292C45.7749 3.364 46.1589 3.436 46.4229 3.508V19.204ZM43.6509 16.36V11.464H54.5229C54.6909 11.728 54.8349 12.064 54.9549 12.472C55.0989 12.88 55.1709 13.336 55.1709 13.84C55.1709 14.728 54.9789 15.376 54.5949 15.784C54.2109 16.168 53.6829 16.36 53.0109 16.36H43.6509ZM43.6509 25.108V20.14H55.6749C55.8429 20.404 55.9869 20.752 56.1069 21.184C56.2509 21.616 56.3229 22.084 56.3229 22.588C56.3229 23.476 56.1309 24.124 55.7469 24.532C55.3629 24.916 54.8349 25.108 54.1629 25.108H43.6509ZM43.6509 8.116V3.184H55.5309C55.6989 3.448 55.8429 3.784 55.9629 4.192C56.1069 4.6 56.1789 5.056 56.1789 5.56C56.1789 6.448 55.9869 7.096 55.6029 7.504C55.2189 7.912 54.6909 8.116 54.0189 8.116H43.6509ZM60.0255 10.6H65.8215C65.9175 11.704 65.9775 12.76 66.0015 13.768C66.0495 14.776 66.0735 15.736 66.0735 16.648C66.0735 17.536 66.0735 18.412 66.0735 19.276V25C65.8335 25.048 65.4375 25.108 64.8855 25.18C64.3575 25.252 63.8175 25.288 63.2655 25.288C62.0655 25.288 61.2255 25.084 60.7455 24.676C60.2655 24.244 60.0255 23.488 60.0255 22.408V10.6ZM79.7895 17.44H73.9935C73.8495 15.76 73.7655 14.212 73.7415 12.796C73.7415 11.38 73.7415 10.036 73.7415 8.764V3.076C74.0055 3.028 74.4015 2.968 74.9295 2.896C75.4575 2.824 75.9975 2.788 76.5495 2.788C77.7495 2.788 78.5895 3.004 79.0695 3.436C79.5495 3.844 79.7895 4.588 79.7895 5.668V17.44ZM79.7895 15.496V10.96V24.244C79.4535 24.556 78.9615 24.808 78.3135 25C77.6895 25.192 76.9335 25.288 76.0455 25.288C75.1575 25.288 74.3175 25.156 73.5255 24.892C72.7335 24.628 72.0855 23.992 71.5815 22.984L68.0175 15.712C67.7775 15.208 67.5495 14.74 67.3335 14.308C67.1415 13.852 66.9495 13.384 66.7575 12.904C66.5655 12.424 66.3495 11.896 66.1095 11.32L60.0255 12.652V4.3C60.3615 3.82 60.8775 3.46 61.5735 3.22C62.2695 2.98 63.0135 2.86 63.8055 2.86C64.6935 2.86 65.5335 3.004 66.3255 3.292C67.1415 3.556 67.7895 4.18 68.2695 5.164L71.8695 12.436C72.1095 12.916 72.3255 13.384 72.5175 13.84C72.7335 14.296 72.9375 14.764 73.1295 15.244C73.3455 15.724 73.5615 16.252 73.7775 16.828L79.7895 15.496ZM94.0711 25.648C92.0551 25.648 90.3151 25.288 88.8511 24.568C87.4111 23.848 86.2951 22.84 85.5031 21.544C84.7351 20.248 84.3511 18.736 84.3511 17.008V14.812H90.6511V16.9C90.6511 18.028 90.9631 18.928 91.5871 19.6C92.2351 20.248 93.0631 20.572 94.0711 20.572C95.0791 20.572 95.8951 20.248 96.5191 19.6C97.1671 18.928 97.4911 18.028 97.4911 16.9V14.812H103.791V17.008C103.791 18.736 103.395 20.248 102.603 21.544C101.835 22.84 100.719 23.848 99.2551 24.568C97.8151 25.288 96.0871 25.648 94.0711 25.648ZM90.6511 15.784H84.3511V3.112C84.6391 3.064 85.0591 3.004 85.6111 2.932C86.1871 2.836 86.7391 2.788 87.2671 2.788C88.4671 2.788 89.3311 2.992 89.8591 3.4C90.3871 3.808 90.6511 4.6 90.6511 5.776V15.784ZM103.791 15.856H97.4911V3.112C97.7791 3.064 98.1991 3.004 98.7511 2.932C99.3271 2.836 99.8791 2.788 100.407 2.788C101.607 2.788 102.471 2.992 102.999 3.4C103.527 3.808 103.791 4.6 103.791 5.776V15.856ZM115.061 20.536C116.237 20.536 117.065 20.344 117.545 19.96C118.025 19.576 118.265 19.144 118.265 18.664C118.265 18.184 118.073 17.812 117.689 17.548C117.305 17.26 116.765 16.996 116.069 16.756L114.557 16.252C113.165 15.772 111.929 15.268 110.849 14.74C109.793 14.188 108.965 13.48 108.365 12.616C107.765 11.752 107.465 10.624 107.465 9.232C107.465 7.192 108.245 5.56 109.805 4.336C111.389 3.112 113.597 2.5 116.429 2.5C117.821 2.5 119.057 2.632 120.137 2.896C121.217 3.16 122.069 3.568 122.693 4.12C123.317 4.648 123.629 5.332 123.629 6.172C123.629 6.772 123.485 7.3 123.197 7.756C122.909 8.212 122.561 8.596 122.153 8.908C121.625 8.572 120.917 8.284 120.029 8.044C119.141 7.78 118.169 7.648 117.113 7.648C116.033 7.648 115.241 7.804 114.737 8.116C114.233 8.404 113.981 8.776 113.981 9.232C113.981 9.592 114.137 9.892 114.449 10.132C114.785 10.348 115.253 10.552 115.853 10.744L117.761 11.356C120.041 12.076 121.781 13.012 122.981 14.164C124.181 15.292 124.781 16.816 124.781 18.736C124.781 20.776 123.965 22.444 122.333 23.74C120.725 25.012 118.373 25.648 115.277 25.648C113.813 25.648 112.493 25.492 111.317 25.18C110.141 24.868 109.205 24.4 108.509 23.776C107.813 23.152 107.465 22.396 107.465 21.508C107.465 20.812 107.669 20.224 108.077 19.744C108.485 19.24 108.929 18.856 109.409 18.592C110.081 19.12 110.897 19.576 111.857 19.96C112.841 20.344 113.909 20.536 115.061 20.536Z" fill="black"/>
</svg>
